<?xml version="1.0" standalone="no"?>
<!DOCTYPE svg PUBLIC "-//W3C//DTD SVG 20010904//EN"
 "http://www.w3.org/TR/2001/REC-SVG-20010904/DTD/svg10.dtd">
<svg version="1.0" xmlns="http://www.w3.org/2000/svg"
 width="700.000000pt" height="700.000000pt" viewBox="0 0 700.000000 700.000000"
 preserveAspectRatio="xMidYMid meet">
<metadata>
Created by potrace 1.11, written by Peter Selinger 2001-2013
</metadata>
<g transform="translate(0.000000,700.000000) scale(0.100000,-0.100000)"
fill="#000000" stroke="none">
<path d="M3109 6996 c-2 -3 -29 -7 -59 -10 -65 -6 -227 -34 -295 -50 -11 -2
-42 -9 -70 -16 -415 -94 -859 -297 -1225 -559 -535 -384 -949 -908 -1204
-1526 -48 -117 -134 -381 -151 -463 -2 -9 -12 -57 -24 -107 -11 -49 -23 -106
-26 -125 -19 -116 -24 -152 -31 -210 -4 -36 -9 -76 -11 -90 -12 -67 -10 -564
3 -685 71 -684 334 -1321 765 -1855 43 -52 96 -115 119 -140 23 -25 54 -58 69
-75 30 -32 169 -165 241 -230 55 -50 233 -187 315 -242 229 -155 479 -287 715
-378 236 -91 590 -182 782 -201 35 -3 66 -8 69 -9 29 -18 535 -26 709 -12 105
9 111 9 290 38 459 75 934 264 1347 536 90 59 291 212 363 276 79 70 260 250
308 307 26 30 63 72 83 95 191 216 423 602 552 920 78 192 159 463 190 635 21
115 28 155 37 220 20 140 25 235 25 485 0 287 -12 406 -70 720 -35 184 -146
520 -235 712 -22 47 -40 87 -40 89 0 11 -139 259 -196 348 l-62 99 46 37 c77
61 161 155 181 202 24 56 20 130 -9 188 -15 30 -119 141 -301 323 -301 301
-327 321 -424 320 -31 0 -67 -9 -92 -22 -39 -19 -127 -95 -196 -167 l-29 -31
-92 62 c-348 238 -734 410 -1138 509 -79 19 -159 37 -178 40 -19 3 -66 11
-105 17 -38 6 -81 13 -95 16 -30 8 -844 16 -851 9z m646 -970 c39 -4 77 -8 85
-11 8 -2 37 -6 63 -10 277 -34 620 -158 905 -326 149 -88 342 -231 342 -254 0
-7 -31 -87 -70 -179 -38 -91 -70 -178 -70 -193 1 -57 58 -115 113 -115 18 0
106 32 197 71 90 39 168 71 172 71 14 0 50 -46 124 -157 84 -127 99 -154 159
-273 127 -252 213 -532 249 -810 3 -19 8 -57 12 -85 10 -77 12 -369 3 -470
-38 -406 -159 -776 -362 -1109 -472 -769 -1301 -1224 -2207 -1210 -74 1 -162
5 -195 9 -137 15 -142 16 -235 31 -186 32 -465 126 -665 225 -243 122 -467
283 -660 476 -690 692 -922 1722 -595 2648 182 514 537 965 999 1269 345 226
779 375 1176 403 44 3 81 6 83 8 5 4 305 -3 377 -9z"/>
<path d="M3460 5563 c-90 -26 -93 -39 -94 -359 0 -292 4 -319 52 -350 15 -10
44 -17 70 -16 36 0 51 6 76 31 l31 31 0 294 c0 317 -3 334 -54 355 -34 15 -62
19 -81 14z"/>
<path d="M2710 5389 c-33 -12 -62 -61 -62 -104 0 -31 173 -447 209 -502 43
-65 145 -62 188 3 31 48 22 90 -65 289 -114 263 -126 288 -150 303 -28 17 -89
23 -120 11z"/>
<path d="M4205 5391 c-39 -17 -63 -59 -159 -281 -103 -237 -113 -275 -80 -325
35 -53 126 -66 170 -24 12 12 48 80 80 152 31 73 67 155 79 182 52 116 65 149
70 172 5 32 -20 95 -45 111 -26 16 -91 24 -115 13z"/>
<path d="M2067 4964 c-45 -30 -63 -80 -48 -127 14 -43 362 -394 409 -414 63
-26 134 12 156 85 16 49 -12 86 -198 272 -100 100 -191 187 -201 192 -35 20
-82 17 -118 -8z"/>
<path d="M4813 4975 c-43 -18 -386 -364 -403 -405 -19 -46 3 -106 49 -137 41
-28 76 -29 116 -4 53 32 379 368 392 403 33 93 -63 183 -154 143z"/>
<path d="M1698 4352 c-61 -7 -112 -95 -89 -154 16 -43 65 -71 313 -177 244
-105 256 -108 315 -78 34 18 58 81 48 125 -12 55 -38 71 -268 172 -242 105
-276 117 -319 112z"/>
<path d="M5265 4352 c-38 -7 -472 -203 -493 -222 -65 -61 -37 -177 48 -200 38
-10 49 -7 247 81 293 129 293 129 313 162 25 41 19 112 -12 144 -26 25 -72 41
-103 35z"/>
<path d="M2725 4086 c-17 -7 -40 -26 -50 -42 -17 -26 -19 -49 -19 -249 0 -149
4 -232 13 -257 21 -63 66 -114 125 -143 53 -26 64 -28 201 -28 97 0 145 -4
146 -11 1 -6 2 -95 3 -197 3 -209 9 -239 61 -263 42 -20 78 -20 119 -1 67 32
65 16 65 591 0 559 0 561 -52 593 -35 22 -108 22 -140 -1 -48 -34 -51 -50 -53
-258 -1 -107 -2 -198 -3 -202 0 -5 -55 -8 -121 -8 l-120 0 0 196 c0 221 -7
251 -65 278 -40 19 -70 20 -110 2z"/>
<path d="M3811 4078 c-56 -15 -116 -66 -147 -121 -27 -51 -28 -56 -30 -218 -2
-205 10 -251 81 -316 61 -56 102 -66 267 -67 l138 -1 1 -30 c0 -16 1 -72 2
-123 l2 -92 -145 0 c-145 0 -146 0 -177 -27 -59 -53 -60 -135 -4 -185 34 -31
33 -31 225 -30 163 0 207 12 266 71 77 78 77 79 76 546 -1 394 -2 412 -22 456
-28 61 -86 115 -143 133 -53 18 -332 20 -390 4z m304 -239 c5 -5 10 -171 6
-221 -1 -16 -14 -18 -123 -18 l-123 0 2 118 c1 64 2 119 2 122 1 8 228 6 236
-1z"/>
<path d="M1544 3632 c-87 -14 -129 -84 -98 -163 26 -62 34 -64 354 -64 319 0
329 2 353 64 25 63 2 128 -54 152 -22 9 -105 12 -283 13 -139 1 -261 0 -272
-2z"/>
<path d="M4945 3629 c-22 -3 -49 -10 -61 -17 -45 -24 -61 -104 -33 -158 24
-46 44 -49 355 -49 l294 0 31 31 c55 56 38 155 -32 184 -30 13 -475 20 -554 9z"/>
<path d="M4803 3065 c-90 -38 -88 -166 3 -215 16 -9 65 -31 109 -49 44 -18
100 -42 125 -53 25 -11 54 -24 65 -29 11 -4 52 -22 90 -40 107 -48 166 -41
205 24 32 51 26 100 -15 142 -20 19 -40 35 -45 35 -6 0 -29 9 -53 20 -148 68
-392 170 -420 174 -17 2 -46 -1 -64 -9z"/>
<path d="M2132 3052 c-12 -2 -127 -50 -255 -107 -261 -115 -272 -124 -271
-206 0 -42 5 -55 31 -81 51 -51 77 -46 340 71 128 57 241 112 252 122 11 11
24 35 30 54 23 84 -43 160 -127 147z"/>
<path d="M2275 2129 c-74 -10 -105 -45 -105 -121 0 -34 6 -46 36 -74 l35 -34
1245 0 c1356 0 1280 -3 1319 56 27 41 16 111 -24 146 -17 15 -41 28 -54 29
-96 4 -2421 3 -2452 -2z"/>
<path d="M2733 1679 c-64 -19 -93 -100 -59 -166 30 -59 12 -58 826 -58 803 0
791 -1 826 52 21 32 20 97 -1 130 -36 54 -24 53 -822 52 -418 0 -752 -5 -770
-10z"/>
</g>
</svg>
